<svg xmlns:inkscape="http://www.inkscape.org/namespaces/inkscape" xmlns:sodipodi="http://sodipodi.sourceforge.net/DTD/sodipodi-0.dtd" xmlns="http://www.w3.org/2000/svg" xmlns:svg="http://www.w3.org/2000/svg" xmlns:rdf="http://www.w3.org/1999/02/22-rdf-syntax-ns#" xmlns:cc="http://creativecommons.org/ns#" xmlns:dc="http://purl.org/dc/elements/1.1/" viewBox="0 0 16.933333 21.1666675" version="1.1" x="0px" y="0px"><g><path style="color:#FFB800;" d="m 8.4646014,2.6955846 a 0.85947485,0.85947485 0 0 0 -0.739376,0.418783 l -2.860994,4.818117 -3.460215,-2.839173 A 0.85947485,0.85947485 0 0 0 0.02093841,5.9468266 L 1.7397154,13.568868 a 0.85947485,0.85947485 0 0 0 0.837569,0.66888 H 14.351919 a 0.85947485,0.85947485 0 0 0 0.840086,-0.66888 l 1.719617,-7.6220414 a 0.85947485,0.85947485 0 0 0 -1.386435,-0.853515 l -3.45686,2.839173 -2.8643486,-4.818117 a 0.85947485,0.85947485 0 0 0 -0.739377,-0.418783 z" fill="#FFB800" stroke-width="1" stroke-linecap="round" stroke-linejoin="round"/></g><text x="0" y="31.933334" fill="#FFB800" font-size="5px" font-weight="bold" font-family="'Helvetica Neue', Helvetica, Arial-Unicode, Arial, Sans-serif">Created by Larea</text><text x="0" y="36.933334" fill="#FFB800" font-size="5px" font-weight="bold" font-family="'Helvetica Neue', Helvetica, Arial-Unicode, Arial, Sans-serif">from the Noun Project</text></svg>